<?xml version="1.0" encoding="UTF-8" standalone="no"?>
<!-- Created with Inkscape (http://www.inkscape.org/) -->

<svg
   xmlns:dc="http://purl.org/dc/elements/1.1/"
   xmlns:cc="http://creativecommons.org/ns#"
   xmlns:rdf="http://www.w3.org/1999/02/22-rdf-syntax-ns#"
   xmlns:svg="http://www.w3.org/2000/svg"
   xmlns="http://www.w3.org/2000/svg"
   xmlns:sodipodi="http://sodipodi.sourceforge.net/DTD/sodipodi-0.dtd"
   xmlns:inkscape="http://www.inkscape.org/namespaces/inkscape"
   version="1.1"
   id="svg64"
   width="1144"
   height="1144"
   viewBox="0 0 1144 1144"
   sodipodi:docname="bulb-logo.svg"
   inkscape:version="0.92.4 (33fec40, 2019-01-16)">
  <metadata
     id="metadata70">
    <rdf:RDF>
      <cc:Work
         rdf:about="">
        <dc:format>image/svg+xml</dc:format>
        <dc:type
           rdf:resource="http://purl.org/dc/dcmitype/StillImage" />
        <dc:title></dc:title>
      </cc:Work>
    </rdf:RDF>
  </metadata>
  <defs
     id="defs68" />
  <sodipodi:namedview
     pagecolor="#ffffff"
     bordercolor="#666666"
     borderopacity="1"
     objecttolerance="10"
     gridtolerance="10"
     guidetolerance="10"
     inkscape:pageopacity="0"
     inkscape:pageshadow="2"
     inkscape:window-width="1299"
     inkscape:window-height="713"
     id="namedview66"
     showgrid="false"
     inkscape:zoom="0.46066434"
     inkscape:cx="535.74414"
     inkscape:cy="587.28938"
     inkscape:window-x="67"
     inkscape:window-y="27"
     inkscape:window-maximized="1"
     inkscape:current-layer="layer4" />
  <g
     inkscape:groupmode="layer"
     id="layer2"
     inkscape:label="Layer 1"
     style="display:inline" />
  <g
     inkscape:groupmode="layer"
     id="layer4"
     inkscape:label="bulb"
     style="display:inline">
    <path
       style="fill:none;stroke:#000000;stroke-width:26.6;stroke-linecap:butt;stroke-linejoin:miter;stroke-opacity:1;stroke-miterlimit:4;stroke-dasharray:none"
       d="m 479.6787,1053.4367 -3.06994,-117.42538 -17.65218,-22.2571 -2.30246,-69.07373 -11.44112,-10.15203 -0.0678,-9.63283 -22.38619,-47.21442 -1.62808,-77.60531 -9.15797,-37.85294 -107.66479,-224.69375 c 0,0 -104.5966,-307.28253 179.77532,-387.601316 284.37192,-80.318786 449.35105,175.833016 369.03226,388.569256"
       id="path890"
       inkscape:connector-curvature="0" />
    <path
       style="fill:none;stroke:#000000;stroke-width:26.6;stroke-linecap:butt;stroke-linejoin:miter;stroke-opacity:1;stroke-miterlimit:4;stroke-dasharray:none"
       d="M 853.11575,438.49715 Z"
       id="path892"
       inkscape:connector-curvature="0" />
    <path
       style="fill:none;stroke:#000000;stroke-width:26.6;stroke-linecap:butt;stroke-linejoin:miter;stroke-opacity:1;stroke-miterlimit:4;stroke-dasharray:none"
       d="m 853.11575,438.49715 -112.88046,251.81025 1e-5,79.2334 c 0,0 -1.89944,32.83301 -21.97913,54.26945 l -1.35674,12.75332 -8.41176,12.48197 -1.08539,63.49526 -20.89374,23.60721 -1.08539,119.39279"
       id="path894"
       inkscape:connector-curvature="0" />
    <path
       style="fill:none;stroke:#000000;stroke-width:26.6;stroke-linecap:butt;stroke-linejoin:miter;stroke-opacity:1;stroke-miterlimit:4;stroke-dasharray:none"
       d="m 685.42315,1055.5408 c -66.40573,35.6948 -153.27535,49.3817 -205.74445,-2.1041"
       id="path898"
       inkscape:connector-curvature="0"
       sodipodi:nodetypes="cc" />
    <path
       style="fill:none;stroke:#000000;stroke-width:26.6;stroke-linecap:butt;stroke-linejoin:miter;stroke-opacity:1;stroke-miterlimit:4;stroke-dasharray:none"
       d="M 488.50479,1062.6465 H 673.85264"
       id="path900"
       inkscape:connector-curvature="0" />
    <path
       style="fill:none;stroke:#000000;stroke-width:26.6;stroke-linecap:butt;stroke-linejoin:miter;stroke-opacity:1;stroke-miterlimit:4;stroke-dasharray:none"
       d="m 476.60876,936.01132 209.89978,0.13669"
       id="path904"
       inkscape:connector-curvature="0" />
    <path
       style="fill:none;stroke:#000000;stroke-width:26.6;stroke-linecap:butt;stroke-linejoin:miter;stroke-opacity:1;stroke-miterlimit:4;stroke-dasharray:none"
       d="m 448.80835,839.00569 268.09108,-2.44212"
       id="path906"
       inkscape:connector-curvature="0"
       sodipodi:nodetypes="cc" />
    <path
       style="fill:none;stroke:#000000;stroke-width:26.6;stroke-linecap:butt;stroke-linejoin:miter;stroke-opacity:1;stroke-miterlimit:4;stroke-dasharray:none"
       d="m 456.65412,844.68049 257.53184,-2.41863"
       id="path908"
       inkscape:connector-curvature="0" />
    <path
       style="fill:none;stroke:#000000;stroke-width:26.6;stroke-linecap:butt;stroke-linejoin:miter;stroke-opacity:1;stroke-miterlimit:4;stroke-dasharray:none"
       d="m 458.95658,913.75422 248.4457,-1.21342"
       id="path910"
       inkscape:connector-curvature="0" />
    <g
       id="g4889"
       transform="matrix(1.2353856,0,0,1.0656391,296.4241,64.717261)">
      <g
         id="g4829">
	<path
   id="path4819"
   d="M 151.245,222.446 C 148.054,237.039 135.036,248 119.5,248 c -4.142,0 -7.5,3.357 -7.5,7.5 0,4.143 3.358,7.5 7.5,7.5 23.774,0 43.522,-17.557 46.966,-40.386 14.556,-1.574 27.993,-8.06 38.395,-18.677 2.899,-2.959 2.85,-7.708 -0.109,-10.606 -2.958,-2.897 -7.707,-2.851 -10.606,0.108 C 184.947,202.829 172.643,208 159.5,208 132.757,208 111,186.243 111,159.5 c 0,-4.143 -3.358,-7.5 -7.5,-7.5 -4.142,0 -7.5,3.357 -7.5,7.5 0,32.215 24.119,58.884 55.245,62.946 z"
   inkscape:connector-curvature="0" />

	<path
   id="path4821"
   d="m 183,287.5 c 0,-4.143 -3.358,-7.5 -7.5,-7.5 -35.014,0 -63.5,28.486 -63.5,63.5 0,0.362 0.013,0.725 0.019,1.088 C 109.23,344.212 106.39,344 103.5,344 c -4.142,0 -7.5,3.357 -7.5,7.5 0,4.143 3.358,7.5 7.5,7.5 26.743,0 48.5,21.757 48.5,48.5 0,4.143 3.358,7.5 7.5,7.5 4.142,0 7.5,-3.357 7.5,-7.5 0,-26.611 -16.462,-49.437 -39.731,-58.867 -0.178,-1.699 -0.269,-3.418 -0.269,-5.133 0,-26.743 21.757,-48.5 48.5,-48.5 4.142,0 7.5,-3.357 7.5,-7.5 z"
   inkscape:connector-curvature="0" />

	<path
   id="path4823"
   d="m 439,223.5 c 0,-17.075 -6.82,-33.256 -18.875,-45.156 C 422.034,172.236 423,165.918 423,159.5 423,128.626 400.848,102.841 371.606,97.171 373.841,91.6 375,85.628 375,79.5 375,59.943 363.117,43.113 346.194,35.839 317.999,13.383 287.162,0 263.5,0 250.347,0 238.683,6.468 231.5,16.384 224.317,6.468 212.653,0 199.5,0 175.838,0 145.001,13.383 116.806,35.839 99.883,43.113 88,59.943 88,79.5 88,85.628 89.159,91.6 91.394,97.171 62.152,102.841 40,128.626 40,159.5 c 0,6.418 0.965,12.735 2.875,18.844 C 30.82,190.244 24,206.425 24,223.5 c 0,13.348 4.149,25.741 11.213,35.975 C 27.872,270.087 24,282.466 24,295.5 c 0,23.088 12.587,44.242 32.516,55.396 -0.343,2.852 -0.516,5.73 -0.516,8.604 0,31.144 20.315,58.679 49.79,68.063 12.821,21.942 36.175,35.437 61.71,35.437 27.995,0 52.269,-16.181 64,-39.674 11.731,23.493 36.005,39.674 64,39.674 25.535,0 48.889,-13.495 61.71,-35.437 29.475,-9.385 49.79,-36.92 49.79,-68.063 0,-2.874 -0.173,-5.752 -0.516,-8.604 C 426.413,339.742 439,318.588 439,295.5 439,282.466 435.128,270.087 427.787,259.475 434.851,249.241 439,236.848 439,223.5 Z M 167.5,448 c -21.029,0 -40.191,-11.594 -50.009,-30.256 -0.973,-1.849 -2.671,-3.208 -4.688,-3.751 C 88.19,407.369 71,384.961 71,359.5 c 0,-3.81 0.384,-7.626 1.141,-11.344 0.702,-3.447 -1.087,-6.92 -4.302,-8.35 C 50.32,332.018 39,314.626 39,295.5 39,286.801 41.256,278.486 45.561,271.121 56.757,280.992 71.436,287 87.5,287 91.642,287 95,283.643 95,279.5 95,275.357 91.642,272 87.5,272 60.757,272 39,250.243 39,223.5 c 0,-14.396 6.352,-27.964 17.428,-37.221 2.5,-2.09 3.365,-5.555 2.14,-8.574 C 56.2,171.869 55,165.744 55,159.5 55,132.757 76.757,111 103.5,111 c 26.743,0 48.5,21.757 48.5,48.5 0,4.143 3.358,7.5 7.5,7.5 4.142,0 7.5,-3.357 7.5,-7.5 C 167,125.858 140.698,98.257 107.579,96.145 104.577,91.127 103,85.421 103,79.5 c 0,-13.369 8.116,-24.875 19.678,-29.859 0.447,-0.133 0.885,-0.307 1.308,-0.527 C 127.568,47.752 131.447,47 135.5,47 c 12.557,0 23.767,7.021 29.256,18.325 1.81,3.727 6.298,5.281 10.023,3.47 3.726,-1.809 5.28,-6.296 3.47,-10.022 C 171.983,45.87 160.124,36.596 146.467,33.311 165.609,21.631 184.454,15 199.5,15 213.009,15 224,25.99 224,39.5 v 97.051 C 217.261,131.205 208.75,128 199.5,128 c -4.142,0 -7.5,3.357 -7.5,7.5 0,4.143 3.358,7.5 7.5,7.5 13.509,0 24.5,10.99 24.5,24.5 v 180.279 c -9.325,-12.031 -22.471,-21.111 -37.935,-25.266 -3.999,-1.071 -8.114,1.297 -9.189,5.297 -1.075,4.001 1.297,8.115 5.297,9.189 C 206.8,343.616 224,366.027 224,391.5 224,422.654 198.654,448 167.5,448 Z M 395.161,339.807 c -3.215,1.43 -5.004,4.902 -4.302,8.35 0.757,3.718 1.141,7.534 1.141,11.344 0,25.461 -17.19,47.869 -41.803,54.493 -2.017,0.543 -3.716,1.902 -4.688,3.751 C 335.691,436.406 316.529,448 295.5,448 264.346,448 239,422.654 239,391.5 c 0,-2.109 -0.098,-4.2 -0.281,-6.271 0.178,-0.641 0.281,-1.314 0.281,-2.012 V 135.5 c 0,-13.51 10.991,-24.5 24.5,-24.5 4.142,0 7.5,-3.357 7.5,-7.5 0,-4.143 -3.358,-7.5 -7.5,-7.5 -9.25,0 -17.761,3.205 -24.5,8.551 V 39.5 C 239,25.99 249.991,15 263.5,15 c 15.046,0 33.891,6.631 53.033,18.311 -13.657,3.284 -25.516,12.559 -31.782,25.462 -1.81,3.727 -0.256,8.214 3.47,10.022 3.726,1.81 8.213,0.257 10.023,-3.47 C 303.733,54.021 314.943,47 327.5,47 c 4.053,0 7.933,0.752 11.514,2.114 0.422,0.22 0.86,0.393 1.305,0.526 C 351.883,54.624 360,66.13 360,79.5 c 0,5.921 -1.577,11.627 -4.579,16.645 C 322.302,98.257 296,125.858 296,159.5 c 0,4.143 3.358,7.5 7.5,7.5 4.142,0 7.5,-3.357 7.5,-7.5 0,-26.743 21.757,-48.5 48.5,-48.5 26.743,0 48.5,21.757 48.5,48.5 0,6.244 -1.2,12.369 -3.567,18.205 -1.225,3.02 -0.36,6.484 2.14,8.574 11.075,9.257 17.427,22.825 17.427,37.221 0,26.743 -21.757,48.5 -48.5,48.5 -4.142,0 -7.5,3.357 -7.5,7.5 0,4.143 3.358,7.5 7.5,7.5 16.064,0 30.743,-6.008 41.939,-15.879 4.306,7.365 6.561,15.68 6.561,24.379 0,19.126 -11.32,36.518 -28.839,44.307 z"
   inkscape:connector-curvature="0" />

	<path
   id="path4825"
   d="M 359.5,240 C 343.964,240 330.946,229.039 327.755,214.446 358.881,210.384 383,183.715 383,151.5 c 0,-4.143 -3.358,-7.5 -7.5,-7.5 -4.142,0 -7.5,3.357 -7.5,7.5 0,26.743 -21.757,48.5 -48.5,48.5 -13.143,0 -25.447,-5.171 -34.646,-14.561 -2.898,-2.958 -7.647,-3.007 -10.606,-0.108 -2.959,2.899 -3.008,7.647 -0.109,10.606 10.402,10.617 23.839,17.103 38.395,18.677 3.444,22.829 23.192,40.386 46.966,40.386 4.142,0 7.5,-3.357 7.5,-7.5 0,-4.143 -3.358,-7.5 -7.5,-7.5 z"
   inkscape:connector-curvature="0" />

	<path
   id="path4827"
   d="m 335.5,328 c -2.89,0 -5.73,0.212 -8.519,0.588 0.006,-0.363 0.019,-0.726 0.019,-1.088 0,-35.014 -28.486,-63.5 -63.5,-63.5 -4.142,0 -7.5,3.357 -7.5,7.5 0,4.143 3.358,7.5 7.5,7.5 26.743,0 48.5,21.757 48.5,48.5 0,1.714 -0.091,3.434 -0.269,5.133 C 288.462,342.063 272,364.889 272,391.5 c 0,4.143 3.358,7.5 7.5,7.5 4.142,0 7.5,-3.357 7.5,-7.5 0,-26.743 21.757,-48.5 48.5,-48.5 4.142,0 7.5,-3.357 7.5,-7.5 0,-4.143 -3.358,-7.5 -7.5,-7.5 z"
   inkscape:connector-curvature="0" />

</g>
      <g
         id="g4831">
</g>
      <g
         id="g4833">
</g>
      <g
         id="g4835">
</g>
      <g
         id="g4837">
</g>
      <g
         id="g4839">
</g>
      <g
         id="g4841">
</g>
      <g
         id="g4843">
</g>
      <g
         id="g4845">
</g>
      <g
         id="g4847">
</g>
      <g
         id="g4849">
</g>
      <g
         id="g4851">
</g>
      <g
         id="g4853">
</g>
      <g
         id="g4855">
</g>
      <g
         id="g4857">
</g>
      <g
         id="g4859">
</g>
    </g>
  </g>
</svg>
